<svg xmlns="http://www.w3.org/2000/svg" width="70" height="70" viewBox="0 0 70 70" fill="none">
  <path d="M35 0C15.6703 0 0 15.67 0 35C0 54.33 15.6703 70 35 70C54.3297 70 70 54.33 70 35C70 15.67 54.3297 0 35 0Z" fill="white" fill-opacity="0.196105"/>
  <path d="M47.0969 36.8553L29.5969 47.7928C29.2428 48.0139 28.8401 48.125 28.4375 48.125C28.0727 48.125 27.7074 48.0342 27.3768 47.8505C26.6815 47.4649 26.25 46.7332 26.25 45.9375V24.0625C26.25 23.2668 26.6815 22.5351 27.3768 22.1496C28.0722 21.7618 28.9224 21.7853 29.5969 22.2073L47.0969 33.1448C47.7362 33.5453 48.125 34.246 48.125 35C48.125 35.754 47.7362 36.4549 47.0969 36.8553Z" fill="white"/>
</svg>