<svg xmlns="http://www.w3.org/2000/svg" width="20" height="20" viewBox="0 0 20 20" fill="none">
  <path d="M12.1396 3.58228L11.4762 5.43133H6.7335L6.08537 3.70809C6.03207 3.55842 6.07421 3.39138 6.19212 3.28491C6.31227 3.18162 6.48378 3.16341 6.62294 3.23916L7.83912 3.89109L8.78081 2.19454C8.8502 2.07101 8.98236 1.99615 9.12398 2.00015C9.2656 2.00415 9.39332 2.08636 9.45563 2.2136L10.2601 3.87584L11.5944 3.12097C11.7332 3.04325 11.9056 3.05983 12.027 3.16255C12.1484 3.26528 12.1933 3.43258 12.1396 3.58228Z" fill="#C9B5D8"/>
  <path fill-rule="evenodd" clip-rule="evenodd" d="M15.2125 4.28759C15.2125 3.65592 15.7246 3.14384 16.3562 3.14384C16.9879 3.14384 17.5 3.65592 17.5 4.28759V5.05008C17.5 5.54807 17.1817 5.97173 16.7375 6.12874V13.4375H17.116C17.3281 13.4375 17.5 13.6094 17.5 13.8215V15.341C17.5 15.5531 17.3281 15.725 17.116 15.725H15.975V16.1063C15.975 16.7379 15.4629 17.25 14.8313 17.25H3.39375C2.76207 17.25 2.25 16.7379 2.25 16.1063V13.0563C2.25 12.4246 2.76207 11.9125 3.39375 11.9125H14.8313C15.4629 11.9125 15.975 12.4246 15.975 13.0563V6.12874C15.5308 5.97173 15.2125 5.54807 15.2125 5.05008V4.28759ZM12.9587 15.3313H5.26635C4.62909 15.3313 4.1125 14.9955 4.1125 14.5813C4.1125 14.1671 4.62909 13.8313 5.26635 13.8313H12.9587C13.5959 13.8313 14.1125 14.1671 14.1125 14.5813C14.1125 14.9955 13.5959 15.3313 12.9587 15.3313Z" fill="#C9B5D8"/>
  <path fill-rule="evenodd" clip-rule="evenodd" d="M14.122 6.03676H4.2824C3.65614 6.03845 3.14893 6.49537 3.14706 7.05952V11.1949C3.27033 11.1644 3.39769 11.1495 3.52551 11.1505H14.8789C15.0067 11.1495 15.1341 11.1644 15.2574 11.1949V7.05952C15.2555 6.49537 14.7483 6.03845 14.122 6.03676ZM6.95135 7.64435C6.66013 8.05178 6.42177 8.48917 6.24114 8.94759C6.07297 9.3704 5.95394 9.80841 5.88603 10.2543C5.85996 10.4239 5.70217 10.55 5.51597 10.55C5.49845 10.5504 5.48092 10.5493 5.46364 10.5466C5.25928 10.5199 5.11705 10.346 5.14592 10.158C5.22186 9.66535 5.3534 9.18133 5.5384 8.71377C5.66275 8.3995 5.81141 8.09383 5.98322 7.79909H5.14218C4.93574 7.79909 4.76838 7.64514 4.76838 7.45523C4.76838 7.26532 4.93574 7.11137 5.14218 7.11137H6.63736C6.77421 7.11147 6.90019 7.17995 6.9663 7.29018C7.0309 7.40212 7.02519 7.53735 6.95135 7.64435ZM9.55364 8.94759C9.73427 8.48917 9.97263 8.05178 10.2638 7.64435C10.3377 7.53735 10.3434 7.40212 10.2788 7.29018C10.2127 7.17995 10.0867 7.11147 9.94986 7.11137H8.45468C8.24824 7.11137 8.08088 7.26532 8.08088 7.45523C8.08088 7.64514 8.24824 7.79909 8.45468 7.79909H9.29572C9.12391 8.09383 8.97525 8.3995 8.8509 8.71377C8.6659 9.18133 8.53436 9.66535 8.45842 10.158C8.42955 10.346 8.57178 10.5199 8.77614 10.5466C8.79342 10.5493 8.81095 10.5504 8.82847 10.55C9.01467 10.55 9.17246 10.4239 9.19853 10.2543C9.26644 9.80841 9.38547 9.3704 9.55364 8.94759ZM13.5763 7.64435C13.2851 8.05178 13.0468 8.48917 12.8661 8.94759C12.698 9.3704 12.5789 9.80841 12.511 10.2543C12.485 10.4239 12.3272 10.55 12.141 10.55C12.1234 10.5504 12.1059 10.5493 12.0886 10.5466C11.8843 10.5199 11.742 10.346 11.7709 10.158C11.8469 9.66535 11.9784 9.18133 12.1634 8.71377C12.2878 8.3995 12.4364 8.09383 12.6082 7.79909H11.7672C11.5607 7.79909 11.3934 7.64514 11.3934 7.45523C11.3934 7.26532 11.5607 7.11137 11.7672 7.11137H13.2624C13.3992 7.11147 13.5252 7.17995 13.5913 7.29018C13.6559 7.40212 13.6502 7.53735 13.5763 7.64435Z" fill="#C9B5D8"/>
</svg>