<svg xmlns="http://www.w3.org/2000/svg" width="20" height="20" viewBox="0 0 20 20" fill="none">
  <path fill-rule="evenodd" clip-rule="evenodd" d="M10.9745 1.68659L17.2592 2.79476C17.9661 2.9194 18.4381 3.59349 18.3134 4.30042L16.5075 14.5426C16.3828 15.2495 15.7087 15.7215 15.0019 15.5969L14.0961 15.4372C14.1014 15.2248 14.0774 15.0083 14.0197 14.793L12.9431 10.7753C13.6482 10.3176 15.134 9.20472 15.3782 7.82015C15.4905 7.18294 15.065 6.57529 14.4278 6.46292C13.9826 6.3844 13.552 6.56868 13.2946 6.90407C13.1673 6.50084 12.8257 6.18043 12.3805 6.10192C12.1459 6.06054 11.9154 6.09232 11.712 6.1805L11.3279 4.74707C11.0862 3.84489 10.3183 3.19014 9.4094 3.07816L9.46888 2.74082C9.59352 2.03395 10.2676 1.56195 10.9745 1.68659ZM10.3864 4.99938C10.2308 4.41872 9.70569 4.03574 9.13183 4.03577C9.0205 4.03577 8.90729 4.05019 8.79463 4.08037L2.63037 5.73206C1.93704 5.91784 1.52558 6.6305 1.71135 7.32382L4.40312 17.3697C4.55872 17.9503 5.08382 18.3333 5.65768 18.3333C5.76901 18.3333 5.88222 18.3189 5.99485 18.2887L12.1591 16.637C12.8524 16.4512 13.2639 15.7385 13.0781 15.0452L10.3864 4.99938ZM5.58961 11.8663C5.48509 11.7743 5.44606 11.6286 5.49059 11.4967L6.43317 8.70576C6.51201 8.47229 6.80309 8.3943 6.98811 8.55706L9.1999 10.5028C9.30442 10.5948 9.34345 10.7405 9.29892 10.8724L8.35634 13.6633C8.2775 13.8968 7.98642 13.9748 7.8014 13.812L5.58961 11.8663Z" fill="#C9B5D8"/>
</svg>