<svg xmlns="http://www.w3.org/2000/svg" width="20" height="20" viewBox="0 0 20 20" fill="none">
  <path fill-rule="evenodd" clip-rule="evenodd" d="M14.6352 8.10153C14.665 8.09084 14.7218 8.08055 14.7686 8.13292C16.0355 9.55074 16.5665 11.7428 16.0598 13.4636C15.3167 15.9874 12.8198 17.75 9.98781 17.75C6.54826 17.75 3.75 15.2519 3.75 12.1814C3.75 9.53876 5.28282 8.0735 6.6352 6.78074C7.94723 5.52657 9.18648 4.34195 8.771 2.3723C8.759 2.31539 8.79634 2.28324 8.81967 2.26913C8.83171 2.26187 8.85612 2.25 8.88695 2.25C8.9059 2.25 8.9273 2.25448 8.94978 2.26723C10.0368 2.88447 11.8603 4.28152 11.8603 6.70305C11.8603 7.01404 11.7875 7.34079 11.717 7.65676C11.5966 8.19662 11.4828 8.70658 11.7416 9.10191C12.0546 9.58002 12.5106 9.83604 13.0604 9.84231C13.463 9.8463 13.841 9.70838 14.1284 9.45239C14.4177 9.19473 14.5812 8.83829 14.577 8.47447C14.5759 8.38677 14.5706 8.29834 14.5611 8.2116C14.5532 8.13937 14.6103 8.11055 14.6352 8.10153ZM7.84517 15.8422C8.4684 16.381 9.28435 16.6592 10.1423 16.6238C11.7919 16.557 13.13 15.2869 13.125 13.7926C13.1238 13.4212 13.0442 13.0606 12.8887 12.721C12.8713 12.6832 12.8383 12.6695 12.8136 12.6647C12.7949 12.6611 12.7463 12.6564 12.7027 12.6933C12.3274 13.0111 11.8375 13.1861 11.3232 13.1861C10.2741 13.1861 9.46579 12.5153 9.31175 11.517C9.25148 11.1262 9.25047 10.617 9.30878 10.0036C9.31479 9.94031 9.2702 9.91105 9.24307 9.89923C9.2302 9.89364 9.21149 9.88768 9.1899 9.88768C9.16608 9.88768 9.13875 9.89492 9.11207 9.9178C7.48131 11.3151 6.875 12.3676 6.875 13.8013C6.875 14.5653 7.22862 15.3092 7.84517 15.8422Z" fill="#C9B5D8"/>
</svg>