<svg xmlns="http://www.w3.org/2000/svg" width="20" height="20" viewBox="0 0 20 20" fill="none">
  <path fill-rule="evenodd" clip-rule="evenodd" d="M9.53043 3.79435V2C8.77098 2.04361 8.0315 2.19252 7.32896 2.44017L8.02627 4.09769C8.50464 3.93729 9.00864 3.83345 9.53043 3.79435ZM10 4.71584C7.08629 4.71584 4.71584 7.08632 4.71584 10C4.71584 12.9137 7.08632 15.2842 10 15.2842C12.9137 15.2842 15.2842 12.9137 15.2842 10C15.2842 7.08632 12.9137 4.71584 10 4.71584ZM12.6166 10.7564C12.3769 10.7564 12.163 10.6441 12.0243 10.4696H11.184C11.0545 10.7949 10.7949 11.0545 10.4696 11.184V12.0243C10.6441 12.163 10.7564 12.3769 10.7564 12.6166C10.7564 13.0337 10.417 13.373 10 13.373C9.58296 13.373 9.24365 13.0337 9.24365 12.6166C9.24365 12.3769 9.35591 12.163 9.53043 12.0243V11.184C9.20514 11.0545 8.9455 10.7949 8.81603 10.4696H7.97565C7.83697 10.6441 7.6231 10.7564 7.38337 10.7564C6.96633 10.7564 6.62702 10.417 6.62702 10C6.62702 9.58296 6.96633 9.24365 7.38337 9.24365C7.6231 9.24365 7.83697 9.35588 7.97565 9.53043H8.81603C8.9455 9.20514 9.20514 8.9455 9.53043 8.81603V7.97565C9.35588 7.83697 9.24365 7.6231 9.24365 7.38337C9.24365 6.96633 9.58296 6.62702 10 6.62702C10.417 6.62702 10.7564 6.96633 10.7564 7.38337C10.7564 7.6231 10.6441 7.83697 10.4696 7.97565V8.81603C10.7949 8.9455 11.0545 9.20514 11.184 9.53043H12.0243C12.163 9.35588 12.3769 9.24365 12.6166 9.24365C13.0337 9.24365 13.373 9.58296 13.373 10C13.373 10.417 13.0337 10.7564 12.6166 10.7564ZM18 9.53043H16.2057C16.1666 9.00864 16.0627 8.50464 15.9024 8.0263L17.5599 7.32899C17.8075 8.0315 17.9564 8.77098 18 9.53043ZM2.41134 7.41283L4.07638 8.09173C3.92821 8.55056 3.83167 9.03234 3.79432 9.53043H2C2.04185 8.80109 2.18103 8.09026 2.41134 7.41283ZM12.8389 15.5372L13.5365 17.1954C14.1784 16.8793 14.7795 16.475 15.3248 15.9889L14.0539 14.7179C13.684 15.0362 13.2765 15.3119 12.8389 15.5372ZM4.67517 15.9889L5.94614 14.7179C6.33322 15.051 6.76169 15.3372 7.22253 15.568L6.54309 17.2343C5.87123 16.9127 5.24301 16.4951 4.67517 15.9889ZM8.09173 15.9237L7.41283 17.5887C8.09026 17.819 8.80113 17.9581 9.53043 18V16.2057C9.03234 16.1684 8.55056 16.0718 8.09173 15.9237ZM15.9889 15.3248L14.7179 14.0539C15.051 13.6668 15.3372 13.2383 15.568 12.7775L17.2343 13.4569C16.9127 14.1288 16.4951 14.757 15.9889 15.3248ZM10.4696 16.2057V18C11.229 17.9564 11.9685 17.8075 12.671 17.5599L11.9737 15.9024C11.4954 16.0627 10.9914 16.1666 10.4696 16.2057ZM16.2057 10.4696C16.1683 10.9677 16.0718 11.4495 15.9236 11.9083L17.5887 12.5872C17.819 11.9098 17.9581 11.1989 18 10.4696L16.2057 10.4696ZM6.46342 2.80459L7.16107 4.46286C6.7235 4.68813 6.31601 4.96383 5.94611 5.28211L4.67514 4.01114C5.22047 3.52501 5.82155 3.12077 6.46342 2.80459ZM11.9083 4.07638L12.5872 2.41134C11.9097 2.18103 11.1989 2.04185 10.4696 2V3.79435C10.9677 3.83167 11.4494 3.92821 11.9083 4.07638ZM17.1954 6.46342L15.5371 7.16107C15.3119 6.72353 15.0362 6.31604 14.7179 5.94611L15.9889 4.67514C16.475 5.22047 16.8792 5.82155 17.1954 6.46342ZM14.0539 5.28207L15.3248 4.01111C14.757 3.50491 14.1288 3.08734 13.4569 2.76568L12.7775 4.43203C13.2383 4.66284 13.6668 4.94899 14.0539 5.28207ZM2 10.4696H3.79432C3.83345 10.9914 3.93729 11.4954 4.09766 11.9737L2.44017 12.671C2.19252 11.9685 2.04361 11.229 2 10.4696ZM5.28207 5.94614L4.01111 4.67517C3.50491 5.24301 3.08734 5.87123 2.76568 6.54309L4.432 7.22256C4.66284 6.76172 4.94899 6.33325 5.28207 5.94614ZM2.80459 13.5366L4.46286 12.839C4.6881 13.2765 4.9638 13.684 5.28207 14.0539L4.01111 15.3248C3.52501 14.7795 3.12077 14.1785 2.80459 13.5366Z" fill="#E641FF"/>
</svg>