<svg xmlns="http://www.w3.org/2000/svg" width="20" height="20" viewBox="0 0 20 20" fill="none">
  <path d="M10 6.6875C8.70772 6.6875 7.65625 5.63603 7.65625 4.34375C7.65625 3.05147 8.70772 2 10 2C11.2923 2 12.3438 3.05147 12.3438 4.34375C12.3438 5.63603 11.2923 6.6875 10 6.6875Z" fill="#C9B5D8"/>
  <path d="M2.9375 5.8125C2.9375 6.84659 3.77841 7.6875 4.8125 7.6875C3.26159 7.6875 2 8.94909 2 10.5V12.8438C2 13.1028 2.20966 13.3125 2.46875 13.3125H2.98191L3.40853 17.5779C3.43234 17.8173 3.63422 18 3.875 18H5.75C5.99078 18 6.19266 17.8173 6.21647 17.5779L6.56294 14.1141C6.08434 13.8895 5.75 13.4065 5.75 12.8438V10.0312C5.75 9.32862 5.93906 8.67569 6.24409 8.09244C5.82319 7.84119 5.33731 7.6875 4.8125 7.6875C5.84659 7.6875 6.6875 6.84659 6.6875 5.8125C6.6875 4.77841 5.84659 3.9375 4.8125 3.9375C3.77841 3.9375 2.9375 4.77841 2.9375 5.8125Z" fill="#E641FF"/>
  <path d="M13.3125 5.8125C13.3125 6.84659 14.1534 7.6875 15.1875 7.6875C14.6627 7.6875 14.1768 7.84119 13.7559 8.09244C14.0609 8.67569 14.25 9.32862 14.25 10.0312V12.8438C14.25 13.4065 13.9157 13.8895 13.4371 14.1141L13.7835 17.5779C13.8073 17.8173 14.0092 18 14.25 18H16.125C16.3658 18 16.5677 17.8173 16.5915 17.5779L17.0181 13.3125H17.5312C17.7903 13.3125 18 13.1028 18 12.8438V10.5C18 8.94909 16.7384 7.6875 15.1875 7.6875C16.2216 7.6875 17.0625 6.84659 17.0625 5.8125C17.0625 4.77841 16.2216 3.9375 15.1875 3.9375C14.1534 3.9375 13.3125 4.77841 13.3125 5.8125Z" fill="#E641FF"/>
  <path d="M10.4688 9.96875V6.73487C12.0547 6.96478 13.2812 8.32016 13.2812 9.96875V12.7812C13.2812 13.0403 13.0716 13.25 12.8125 13.25H11.7624L11.4044 17.5706C11.3843 17.8132 11.181 18 10.9375 18H9.0625C8.81897 18 8.61572 17.8132 8.59559 17.5706L8.23763 13.25H7.1875C6.92841 13.25 6.71875 13.0403 6.71875 12.7812V9.96875C6.71875 8.32016 7.94531 6.96478 9.53125 6.73487V9.96875C9.53125 10.2278 9.74091 10.4375 10 10.4375C10.2591 10.4375 10.4688 10.2278 10.4688 9.96875Z" fill="#E641FF"/>
</svg>