<svg xmlns="http://www.w3.org/2000/svg" width="20" height="20" viewBox="0 0 20 20" fill="none">
  <path fill-rule="evenodd" clip-rule="evenodd" d="M2.5 10.25C2.5 6.11469 5.86469 2.75 10 2.75C14.1353 2.75 17.5 6.11469 17.5 10.25C17.5 14.3853 14.1353 17.75 10 17.75C5.86469 17.75 2.5 14.3853 2.5 10.25ZM12.4047 4.14969L10.4763 5.18656V7.01656L13.1828 8.98812L14.6537 8.26719L15.1131 6.14656C14.4044 5.26531 13.4725 4.5725 12.4047 4.14969ZM7.61125 4.14406L9.53969 5.18469V7.01656L6.835 8.98812L5.35656 8.26625L4.89719 6.1325C5.60781 5.25313 6.54156 4.56406 7.61125 4.14406ZM3.47031 10.8875C3.58 12.0191 3.97844 13.0662 4.59062 13.9569L6.67375 14.0722L7.59531 12.9678L6.505 9.87125L5.0575 9.16344L3.47031 10.8875ZM11.6716 16.5884C11.1363 16.73 10.5784 16.8125 10 16.8125C9.30063 16.8125 8.6275 16.7 7.99469 16.4966L7.405 14.6609L8.34531 13.5312H11.6584L12.5819 14.6244L11.6716 16.5884ZM12.4066 12.9669L13.3131 14.0403L15.6447 13.58C16.1219 12.7747 16.4359 11.8644 16.5306 10.8884L14.9528 9.16531L13.5119 9.87125L12.4066 12.9669Z" fill="#C9B5D8"/>
</svg>