<svg xmlns="http://www.w3.org/2000/svg" width="20" height="20" viewBox="0 0 20 20" fill="none">
  <path fill-rule="evenodd" clip-rule="evenodd" d="M16.5172 6.22811L18.1207 7.83204C18.2035 7.91472 18.25 8.02693 18.25 8.14393C18.25 8.26093 18.2035 8.37314 18.1207 8.45582L17.3681 9.20864V8.99391C17.3678 8.26309 16.7759 7.67056 16.0453 7.66973H15.0187L12.1967 4.84697C12.0245 4.67472 11.7453 4.67472 11.5731 4.84697C11.4009 5.01922 11.4009 5.2985 11.5731 5.47075L13.7725 7.67074H11.6693C11.6837 7.53837 11.6374 7.40661 11.5433 7.31235L11.0089 6.77754C10.8367 6.60528 10.5575 6.60528 10.3853 6.77754C10.2131 6.94979 10.2131 7.22906 10.3853 7.40132L10.6547 7.67074H6.25579L8.45573 5.47075L8.99015 6.00531C9.10052 6.12163 9.26531 6.16887 9.42052 6.12868C9.57573 6.08848 9.6969 5.96719 9.73696 5.8119C9.77702 5.65662 9.72966 5.49183 9.61327 5.38153L9.07885 4.84697L11.7958 2.1293C11.8785 2.04652 11.9907 2 12.1076 2C12.2246 2 12.3368 2.04652 12.4194 2.1293L14.0225 3.73324C14.1051 3.81593 14.1515 3.92808 14.1515 4.045V4.10675C14.1501 4.63554 14.3602 5.14292 14.735 5.51586C15.1103 5.8884 15.6173 6.09795 16.1461 6.09906H16.2055C16.3224 6.09903 16.4345 6.14545 16.5172 6.22811ZM16.4862 11.2622C16.4862 11.3792 16.4397 11.4913 16.357 11.574L16.3136 11.6173C15.9388 11.9902 15.7288 12.4977 15.7303 13.0264C15.7321 13.5553 15.9422 14.0621 16.3151 14.4371L16.357 14.4789C16.4397 14.5616 16.4862 14.6737 16.4862 14.7907V17.0589C16.4863 17.1759 16.4398 17.2882 16.3571 17.3709C16.2744 17.4536 16.1622 17.5001 16.0453 17.5H12.2027V16.7439C12.2027 16.5003 12.0053 16.3028 11.7618 16.3028C11.5183 16.3028 11.3209 16.5003 11.3209 16.7439V17.5H2.69094C2.57398 17.5001 2.46178 17.4536 2.37908 17.3709C2.29637 17.2882 2.24993 17.1759 2.25 17.0589V14.7907C2.25026 14.674 2.29674 14.5621 2.37926 14.4796L2.42109 14.4378C2.79415 14.0627 3.00429 13.5555 3.00591 13.0264C3.00741 12.4977 2.79737 11.9902 2.4226 11.6173L2.37926 11.574C2.29655 11.4913 2.25006 11.3792 2.25 11.2622V8.99391C2.24993 8.87691 2.29637 8.76469 2.37908 8.68196C2.46178 8.59923 2.57398 8.55278 2.69094 8.55285H11.3209V9.30895C11.3209 9.55254 11.5183 9.75 11.7618 9.75C12.0053 9.75 12.2027 9.55254 12.2027 9.30895V8.55285H16.0453C16.1622 8.55278 16.2744 8.59923 16.3571 8.68196C16.4398 8.76469 16.4863 8.87691 16.4862 8.99391V11.2622ZM9.14889 13.8097L10.1797 12.8046C10.2999 12.6876 10.3432 12.5124 10.2915 12.3528C10.2398 12.1931 10.102 12.0767 9.93604 12.0523L8.51141 11.8451L7.87368 10.554C7.79937 10.4035 7.64613 10.3083 7.47834 10.3083C7.31056 10.3083 7.15732 10.4035 7.083 10.554L6.44578 11.8451L5.02115 12.0523C4.85508 12.0765 4.71715 12.1929 4.66534 12.3526C4.61352 12.5122 4.6568 12.6875 4.77699 12.8046L5.80679 13.8097L5.56338 15.2289C5.53472 15.3947 5.60281 15.5623 5.73893 15.6611C5.87506 15.7599 6.0555 15.7726 6.20414 15.6939L7.47834 15.024L8.75255 15.6939C8.90111 15.772 9.08113 15.759 9.21691 15.6603C9.35269 15.5616 9.42068 15.3944 9.39229 15.2289L9.14889 13.8097ZM12.2027 14.7705C12.2027 15.0141 12.0053 15.2115 11.7618 15.2115C11.5183 15.2115 11.3209 15.0141 11.3209 14.7705V14.0144C11.3209 13.7708 11.5183 13.5733 11.7618 13.5733C12.0053 13.5733 12.2027 13.7708 12.2027 14.0144V14.7705ZM11.7618 12.481C12.0053 12.481 12.2027 12.2836 12.2027 12.04V11.2839C12.2027 11.0403 12.0053 10.8428 11.7618 10.8428C11.5183 10.8428 11.3209 11.0403 11.3209 11.2839V12.04C11.3209 12.2836 11.5183 12.481 11.7618 12.481ZM14.4075 15.2947C14.4075 15.5383 14.2101 15.7358 13.9665 15.7358C13.723 15.7358 13.5256 15.5383 13.5256 15.2947V10.7581C13.5256 10.5145 13.723 10.3171 13.9665 10.3171C14.2101 10.3171 14.4075 10.5145 14.4075 10.7581V15.2947Z" fill="#E641FF"/>
</svg>